<svg width="1280" height="960" xmlns="http://www.w3.org/2000/svg" preserveAspectRatio="xMidYMid meet">

 <g>
  <title>background</title>
  <rect fill="none" id="canvas_background" height="962" width="1282" y="-1" x="-1"/>
 </g>
 <g>
  <title>Layer 1</title>
  <path fill="#3e4095" id="svg_2" d="m602.148209,64.147091c-16.2,7.4 -39.600001,18.2 -52.000001,23.8c-12.4,5.7 -36.000001,16.6 -52.500001,24.1c-16.5,7.6 -43.500001,20 -60.000001,27.5c-63.500001,29.2 -142.200002,65.300001 -157.900002,72.400001l-7.9,3.6l-34.200001,0c-33.1,0 -34.300001,0.1 -36.900001,2.1c-2.5,2 -3.3,5.3 -1.8,7.5c2,3.1 5.4,3.4 39.600001,3.4l34.500001,0l11.3,-5.1c6.2,-2.9 24.8,-11.4 41.300001,-18.9c16.5,-7.6 41.000001,-18.8 54.500001,-25c13.5,-6.2 38.200001,-17.5 55.000001,-25.2c16.8,-7.7 32.8,-15.1 35.500001,-16.3c2.8,-1.3 16.3,-7.5 30,-13.8c13.8,-6.3 36.000001,-16.5 49.500001,-22.7c13.5,-6.1 26.3,-12 28.5,-13.1c2.2,-1 15.2,-7 28.9,-13.3l25,-11.3l13,5.4c7.2,3.1 15.8,6.6 19.1,8c3.3,1.4 10.7,4.5 16.5,7c5.8,2.5 14.1,6 18.5,7.8c4.4,1.8 16.8,6.9 27.5,11.5c10.7,4.5 24.9,10.4 31.5,13.2c6.6,2.8 13.8,5.8 16,6.8c2.2,1 12.3,5.2 22.5,9.5c10.2,4.2 27,11.3 37.300001,15.7c13.2,5.5 19.7,7.8 22,7.6c2.8,-0.3 3.9,-1.4 9,-9.1c3.8,-5.8 6.3,-8.7 7.2,-8.3c1.7,0.6 16.2,11.3 16.9,12.4c0.2,0.4 -1.8,4.3 -4.5,8.7c-2.6,4.4 -4.9,9.2 -4.9,10.7c0,2.2 2.6,5 13.5,15.2c9.6,8.9 14.3,12.6 16,12.6c1.4,0 5.5,-2.5 10,-6.1c4.3,-3.3 8.1,-5.7 8.5,-5.2c0.4,0.4 3.3,4.6 6.5,9.1l5.8,8.4l-7.7,7.7c-4.2,4.2 -7.6,8.2 -7.6,8.8c0,2.8 14.7,32.7 16.8,34.100001c2,1.3 3.1,1.2 11.9,-1.3c5.4,-1.5 9.9,-2.3 10,-1.9c3.7,10.3 6,18 5.5,18.5c-0.4,0.3 -4.6,1.8 -9.4,3.3c-5.8,1.7 -9.1,3.3 -9.8,4.6c-1.6,3.1 1.6,39.900001 3.7,42.200001c1.3,1.5 3.3,1.8 12,1.8l10.4,0l-0.3,11.2l-0.3,11.3l-10.7,0.5c-6.1,0.3 -11.2,1 -11.9,1.6c-1.3,1.4 -8.9,30.5 -9.1,35.300001c-0.2,4.3 1.9,6.1 11.5,9.7c3.9,1.5 7.7,3.1 8.3,3.6c0.9,0.6 0.1,3.3 -2.7,9.6c-2.1,4.8 -4.2,8.8 -4.6,8.9c-0.5,0.2 -4.2,-0.8 -8.3,-2.2c-9,-3.1 -11.1,-3.1 -13.7,-0.3c-5.3,5.9 -20.3,28.2 -20.3,30.2c0,2.9 1.2,4.2 9.7,11.1c4.4,3.4 7,6.2 6.6,6.9c-1.4,2.3 -13.6,16.6 -14.3,16.6c-0.3,0 -4.1,-2.7 -8.4,-6c-4.3,-3.3 -8.9,-6 -10.1,-6c-1.4,0 -6.5,3.5 -13.2,8.9c-13.6,11.1 -31.9,23.1 -35.300001,23.1c-0.6,0 -1,-3.8 -1,-10.5l0,-10.5l-3.8,2.4c-23.3,14.7 -56.000001,22.7 -86.700001,21.3c-35.900001,-1.7 -62.200001,-8.4 -139.200002,-35.300001c-71.100001,-24.8 -104.000002,-33.2 -143.300002,-36.500001c-12.6,-1.1 -43.000001,-0.6 -45.100001,0.7c-0.5,0.3 -0.9,72.800001 -0.9,166.500002l0,165.900002l97.500001,-0.2l97.400001,-0.3l2.3,-2.3l2.3,-2.3l0.5,-98.200001c0.5,-86.400001 0.8,-98.800001 2.2,-103.400002c3.5,-11.3 10.2,-18.1 21.3,-21.6c7,-2.2 7.3,-2.2 85.500001,-2.2c74.600001,0 78.700001,0.1 82.000001,1.9c13.6,7.2 19.9,24.5 15.4,41.900001c-2.9,11.3 -7.8,17.7 -16.4,21.6c-4.3,2 -6.4,2.1 -57.200001,2.1l-52.800001,0l0,13l0,12.9l53.800001,0.3l53.700001,0.3l4.6,2.7c10.1,5.9 15.2,15.8 15.2,29.3c0,14.7 -6.8,26.3 -17.9,30.5c-5.3,1.9 -7.6,2 -57.900001,2l-52.500001,0l0,17.5l0,17.5l49.300001,0c51.600001,0 62.700001,0.7 70.900001,4.2c8.6,3.7 13.8,11.6 13.8,20.9c0,3.2 3.1,7.9 5.3,7.9c0.4,0 0.7,-55.200001 0.7,-122.800002l0,-122.800002l8.7,-4.3c12.8,-6.3 25.3,-14.8 39.400001,-26.8c1.4,-1.2 2.7,-0.5 10.1,5.2c9.9,7.6 12.4,8 16.7,3.2c9.8,-10.8 23.1,-28.1 23.1,-30.1c0,-2.9 -1.1,-4.2 -9.8,-11.1c-4,-3.2 -7.1,-6.2 -7,-6.7c0.9,-2.7 11.5,-16.7 12.7,-16.8c0.7,0 4.5,1.1 8.3,2.5c7.1,2.6 11.3,3.1 13.6,1.7c1.8,-1.2 15.2,-32.2 15.2,-35.300001c0,-3.6 -2.2,-5.2 -12,-8.9c-4.7,-1.8 -8.8,-3.6 -9.3,-3.9c-0.8,-0.8 3.1,-19 4.6,-20.9c0.6,-0.8 4.3,-1.2 11.8,-1.2c10.2,0 10.9,-0.1 12.3,-2.3c1,-1.6 1.5,-7.6 2,-21.4c0.8,-24.3 1.4,-23.3 -13.9,-23.3c-12.3,0 -11.3,1.1 -11.7,-14.4l-0.3,-9.9l9.9,-3.3c9.8,-3.2 11.6,-4.3 11.6,-7.6c0,-2.8 -10.7,-34.000001 -12.4,-35.900001c-2.1,-2.5 -3.6,-2.4 -13.6,0.6c-4.6,1.4 -8.7,2.5 -9.2,2.5c-0.4,0 -2.8,-4.4 -5.3,-9.7l-4.5,-9.7l7.4,-7c4.1,-3.9 7.8,-8.1 8.1,-9.3c0.6,-2.1 -6.8,-13.9 -18.7,-30.1c-5.3,-7.2 -7.5,-7.1 -17.4,0.8c-4.1,3.3 -8,6 -8.6,6c-0.6,0 -4.4,-3.3 -8.4,-7.3l-7.4,-7.2l5,-8.4c7.3,-12.1 7.2,-12.6 -6.5,-22.8c-19.1,-14.3 -21.2,-15.6 -24,-14.9c-1.8,0.5 -4.3,3.4 -8.6,9.9c-3.3,5.1 -6.5,9.4 -7,9.6c-0.6,0.2 -5.8,-1.7 -11.7,-4.2c-5.9,-2.5 -18.1,-7.7 -27.2,-11.5c-16,-6.7 -24.7,-10.4 -57.000001,-23.9c-8.5,-3.6 -18.4,-7.8 -22,-9.3c-3.6,-1.6 -12.1,-5.2 -19,-8c-15.4,-6.4 -23.3,-9.7 -56.900001,-23.9c-14.5,-6.1 -26.7,-11.1 -27,-11.1c-0.3,0 -13.9,6.1 -30.1,13.6z"/>
  <path fill="#3e4095" id="svg_3" d="m745.048211,145.73892c-36.400001,5.7 -70.500001,24 -101.700002,54.600001l-10.3,10.1l-11,0.7c-75.300001,4.5 -143.900002,48.900001 -174.900003,113.100002c-11.7,24.3 -18,51.600001 -18,78.200001l0,8.8l21.1,-0.3c22.9,-0.5 35.600001,0.5 57.900001,4.4c32.7,5.7 56.400001,12.7 138.500002,41.200001c40.200001,13.9 62.300001,20.1 86.400001,24c16.4,2.6 49.300001,2.3 62.600001,-0.6c16.1,-3.5 31.6,-9.8 45.100001,-18.3c3.4,-2.2 6.4,-3.9 6.8,-3.9c0.3,0 0.6,3.1 0.6,7c0,3.8 0.3,7 0.8,7c1.2,-0.1 19.1,-13.6 28.5,-21.7c15.6,-13.3 32.3,-33.800001 42.100001,-51.500001c6.4,-11.5 11.5,-24.7 15.2,-39.200001c3.2,-12.7 3.7,-15.8 4.1,-31.3c0.7,-19.9 -0.5,-31.1 -4.8,-47.500001c-13.1,-50.000001 -46.400001,-92.300001 -92.300001,-117.200002c-10.4,-5.6 -25.4,-11.3 -39.000001,-14.8c-11.2,-2.8 -13.6,-3.1 -32.1,-3.4c-11,-0.1 -22.5,0.1 -25.6,0.6zm48.600001,13.6c27.1,4.6 56.600001,20.2 79.300001,41.900001c27,25.7 44.500001,57.100001 51.400001,92.000001c2.8,14.5 3.1,39.500001 0.5,53.500001c-6.3,33.900001 -26.8,68.500001 -55.500001,93.600001c-8.8,7.7 -19.7,16.4 -20.5,16.4c-0.3,0 -0.7,-17.2 -1,-38.300001c-0.6,-39.000001 -0.8,-42.300001 -5.3,-60.500001c-10.8,-44.000001 -40.100001,-84.200001 -81.000001,-111.200002c-30.2,-19.9 -64.800001,-31.9 -102.600002,-35.500001c-3.8,-0.4 -6.8,-1 -6.8,-1.5c0,-1.5 16.3,-15.9 25.4,-22.4c17.4,-12.4 41.800001,-23.4 60.400001,-27.1c18.3,-3.7 37.600001,-4 55.700001,-0.9z"/>
  <path fill="#3e4095" id="svg_4" d="m410.648206,417.947096c-74.500001,13 -128.500002,59.600001 -146.900002,126.900002c-4.7,17 -6.1,28.4 -6,48.700001c0.1,19.9 1.8,32.9 6.5,49.500001c11.3,40.000001 34.500001,73.400001 67.700001,97.200001c15.5,11.1 43.300001,23.5 63.300001,28.2c5.8,1.3 23,3.9 28.9,4.3l4.5,0.3l0,-6l0,-5.9l-10.5,-1.3c-28.5,-3.6 -53.700001,-12.9 -77.000001,-28.4c-12.9,-8.5 -33.2,-29 -42.200001,-42.400001c-25.7,-38.500001 -35.100001,-86.300001 -25.7,-131.000002c14.4,-69.000001 67.800001,-116.400002 144.900002,-129.000002c5.2,-0.8 9.8,-1.5 10.3,-1.5c0.4,0 0.7,-2.7 0.7,-6c0,-5.9 0,-6 -2.7,-5.9c-1.6,0 -8.6,1.1 -15.8,2.3z"/>
  <rect stroke="null" id="svg_8" height="294.85804" width="418.417634" y="517.734815" x="429.387108" fill-opacity="null" stroke-opacity="null" stroke-width="null" fill="#3e4095"/>
  <rect id="svg_9" height="2.808172" width="0" y="927.727918" x="1019.103216" fill-opacity="null" stroke-opacity="null" stroke-width="null" stroke="null" fill="#3e4095"/>
 </g>
</svg>