<svg width="500.00000000000006" height="200" xmlns="http://www.w3.org/2000/svg" preserveAspectRatio="xMidYMid meet">

 <g>
  <title>background</title>
  <rect fill="none" id="canvas_background" height="202" width="502" y="-1" x="-1"/>
 </g>
 <g>
  <title>Layer 1</title>
  <path stroke="null" fill="#3e4095" id="svg_2" d="m113.942922,28.084951c-3.023504,1.381107 -7.390787,3.396776 -9.705073,4.441937c-2.314287,1.063825 -6.718897,3.098158 -9.798392,4.497928c-3.079494,1.418434 -8.118667,3.732721 -11.198162,5.132491c-11.851388,5.449772 -26.539643,12.187333 -29.469829,13.512448l-1.474425,0.67189l-6.382952,0c-6.177653,0 -6.401616,0.018664 -6.886869,0.391936c-0.46659,0.373272 -0.615899,0.989171 -0.335945,1.39977c0.373272,0.578572 1.007835,0.634562 7.390787,0.634562l6.438943,0l2.108987,-0.951844c1.157143,-0.541244 4.628574,-2.127651 7.708068,-3.527421c3.079494,-1.418434 7.652077,-3.508757 10.171664,-4.665901c2.519586,-1.157143 7.129496,-3.266131 10.264982,-4.703228c3.135485,-1.437097 6.121662,-2.818204 6.625579,-3.042167c0.522581,-0.242627 3.042167,-1.39977 5.599081,-2.575577c2.575577,-1.175807 6.718897,-3.079494 9.238483,-4.236638c2.519586,-1.13848 4.908528,-2.239632 5.319127,-2.444932c0.410599,-0.186636 2.836868,-1.306452 5.393781,-2.482259l4.665901,-2.108987l2.426268,1.007835c1.343779,0.578572 2.948849,1.231798 3.564748,1.493088c0.615899,0.26129 1.997006,0.839862 3.079494,1.306452c1.082489,0.46659 2.631568,1.119816 3.452767,1.455761c0.821199,0.335945 3.135485,1.287789 5.132491,2.146314c1.997006,0.839862 4.647237,1.941015 5.879035,2.463596c1.231798,0.522581 2.575577,1.082489 2.986176,1.269125c0.410599,0.186636 2.295623,0.970507 4.199311,1.773042c1.903687,0.783871 5.039173,2.108987 6.961524,2.930186c2.463596,1.026498 3.67673,1.455761 4.105993,1.418434c0.522581,-0.055991 0.727881,-0.26129 1.679724,-1.698388c0.709217,-1.082489 1.175807,-1.623733 1.343779,-1.549079c0.317281,0.111982 3.023504,2.108987 3.154149,2.314287c0.037327,0.074654 -0.335945,0.802535 -0.839862,1.623733c-0.485254,0.821199 -0.914517,1.717051 -0.914517,1.997006c0,0.410599 0.485254,0.93318 2.519586,2.836868c1.791706,1.661061 2.668895,2.351614 2.986176,2.351614c0.26129,0 1.026498,-0.46659 1.86636,-1.13848c0.802535,-0.615899 1.511752,-1.063825 1.586406,-0.970507c0.074654,0.074654 0.615899,0.858526 1.213134,1.698388l1.082489,1.567743l-1.437097,1.437097c-0.783871,0.783871 -1.418434,1.530415 -1.418434,1.642397c0,0.522581 2.74355,6.102998 3.135485,6.364289c0.373272,0.242627 0.578572,0.223963 2.220969,-0.242627c1.007835,-0.279954 1.847697,-0.429263 1.86636,-0.354608c0.690553,1.922351 1.119816,3.359449 1.026498,3.452767c-0.074654,0.055991 -0.858526,0.335945 -1.754379,0.615899c-1.082489,0.317281 -1.698388,0.615899 -1.829033,0.858526c-0.298618,0.578572 0.298618,7.446778 0.690553,7.87604c0.242627,0.279954 0.615899,0.335945 2.239632,0.335945l1.941015,0l-0.055991,2.090324l-0.055991,2.108987l-1.997006,0.093318c-1.13848,0.055991 -2.090324,0.186636 -2.220969,0.298618c-0.242627,0.26129 -1.661061,5.692399 -1.698388,6.588252c-0.037327,0.802535 0.354608,1.13848 2.146314,1.810369c0.727881,0.279954 1.437097,0.578572 1.549079,0.67189c0.167972,0.111982 0.018664,0.615899 -0.503917,1.791706c-0.391936,0.895853 -0.783871,1.642397 -0.858526,1.661061c-0.093318,0.037327 -0.783871,-0.149309 -1.549079,-0.410599c-1.679724,-0.578572 -2.07166,-0.578572 -2.556914,-0.055991c-0.989171,1.101153 -3.788711,5.263136 -3.788711,5.636408c0,0.541244 0.223963,0.783871 1.810369,2.07166c0.821199,0.634562 1.306452,1.157143 1.231798,1.287789c-0.26129,0.429263 -2.53825,3.098158 -2.668895,3.098158c-0.055991,0 -0.765208,-0.503917 -1.567743,-1.119816c-0.802535,-0.615899 -1.661061,-1.119816 -1.885024,-1.119816c-0.26129,0 -1.213134,0.653226 -2.463596,1.661061c-2.53825,2.07166 -5.953689,4.311292 -6.588252,4.311292c-0.111982,0 -0.186636,-0.709217 -0.186636,-1.959678l0,-1.959678l-0.709217,0.447926c-4.348619,2.74355 -10.451618,4.236638 -16.181344,3.975347c-6.700233,-0.317281 -11.608761,-1.567743 -25.979735,-6.588252c-13.269822,-4.628574 -19.410147,-6.196316 -26.744943,-6.812215c-2.351614,-0.2053 -8.025349,-0.111982 -8.417285,0.130645c-0.093318,0.055991 -0.167972,13.587103 -0.167972,31.074899l0,30.962917l18.197013,-0.037327l18.178349,-0.055991l0.429263,-0.429263l0.429263,-0.429263l0.093318,-18.327658c0.093318,-16.125353 0.149309,-18.43964 0.410599,-19.298165c0.653226,-2.108987 1.903687,-3.378112 3.975347,-4.031338c1.306452,-0.410599 1.362443,-0.410599 15.95738,-0.410599c13.923048,0 14.688255,0.018664 15.304154,0.354608c2.53825,1.343779 3.714057,4.572583 2.874195,7.82005c-0.541244,2.108987 -1.455761,3.303458 -3.060831,4.031338c-0.802535,0.373272 -1.194471,0.391936 -10.675581,0.391936l-9.854382,0l0,2.426268l0,2.407605l10.041018,0.055991l10.022355,0.055991l0.858526,0.503917c1.885024,1.101153 2.836868,2.948849 2.836868,5.468436c0,2.74355 -1.269125,4.908528 -3.340785,5.692399c-0.989171,0.354608 -1.418434,0.373272 -10.806226,0.373272l-9.798392,0l0,3.266131l0,3.266131l9.201156,0c9.630419,0 11.702079,0.130645 13.232494,0.783871c1.60507,0.690553 2.575577,2.164978 2.575577,3.900693c0,0.597235 0.578572,1.474425 0.989171,1.474425c0.074654,0 0.130645,-10.302309 0.130645,-22.918904l0,-22.918904l1.623733,-0.802535c2.388941,-1.175807 4.721892,-2.762213 7.35346,-5.001846c0.26129,-0.223963 0.503917,-0.093318 1.885024,0.970507c1.847697,1.418434 2.314287,1.493088 3.116822,0.597235c1.829033,-2.015669 4.311292,-5.244472 4.311292,-5.617744c0,-0.541244 -0.2053,-0.783871 -1.829033,-2.07166c-0.746544,-0.597235 -1.325116,-1.157143 -1.306452,-1.250461c0.167972,-0.503917 2.146314,-3.116822 2.370278,-3.135485c0.130645,0 0.839862,0.2053 1.549079,0.46659c1.325116,0.485254 2.108987,0.578572 2.53825,0.317281c0.335945,-0.223963 2.836868,-6.00968 2.836868,-6.588252c0,-0.67189 -0.410599,-0.970507 -2.239632,-1.661061c-0.877189,-0.335945 -1.642397,-0.67189 -1.735715,-0.727881c-0.149309,-0.149309 0.578572,-3.546085 0.858526,-3.900693c0.111982,-0.149309 0.802535,-0.223963 2.202305,-0.223963c1.903687,0 2.034333,-0.018664 2.295623,-0.429263c0.186636,-0.298618 0.279954,-1.418434 0.373272,-3.994011c0.149309,-4.535255 0.26129,-4.348619 -2.594241,-4.348619c-2.295623,0 -2.108987,0.2053 -2.183642,-2.687559l-0.055991,-1.847697l1.847697,-0.615899c1.829033,-0.597235 2.164978,-0.802535 2.164978,-1.418434c0,-0.522581 -1.997006,-6.345625 -2.314287,-6.700233c-0.391936,-0.46659 -0.67189,-0.447926 -2.53825,0.111982c-0.858526,0.26129 -1.623733,0.46659 -1.717051,0.46659c-0.074654,0 -0.522581,-0.821199 -0.989171,-1.810369l-0.839862,-1.810369l1.381107,-1.306452c0.765208,-0.727881 1.455761,-1.511752 1.511752,-1.735715c0.111982,-0.391936 -1.269125,-2.594241 -3.490094,-5.617744c-0.989171,-1.343779 -1.39977,-1.325116 -3.247467,0.149309c-0.765208,0.615899 -1.493088,1.119816 -1.60507,1.119816c-0.111982,0 -0.821199,-0.615899 -1.567743,-1.362443l-1.381107,-1.343779l0.93318,-1.567743c1.362443,-2.258296 1.343779,-2.351614 -1.213134,-4.255301c-3.564748,-2.668895 -3.956684,-2.911522 -4.479265,-2.780877c-0.335945,0.093318 -0.802535,0.634562 -1.60507,1.847697c-0.615899,0.951844 -1.213134,1.754379 -1.306452,1.791706c-0.111982,0.037327 -1.082489,-0.317281 -2.183642,-0.783871c-1.101153,-0.46659 -3.378112,-1.437097 -5.0765,-2.146314c-2.986176,-1.250461 -4.60991,-1.941015 -10.638254,-4.460601c-1.586406,-0.67189 -3.434103,-1.455761 -4.105993,-1.735715c-0.67189,-0.298618 -2.258296,-0.970507 -3.546085,-1.493088c-2.874195,-1.194471 -4.348619,-1.810369 -10.61959,-4.460601c-2.706222,-1.13848 -4.983182,-2.07166 -5.039173,-2.07166c-0.055991,0 -2.594241,1.13848 -5.617744,2.53825z"/>
  <path stroke="null" fill="#3e4095" id="svg_3" d="m140.613211,43.837032c-6.793551,1.063825 -13.15784,4.479265 -18.980884,10.190327l-1.922351,1.885024l-2.052996,0.130645c-14.053693,0.839862 -26.856925,9.126502 -32.642641,21.108535c-2.183642,4.535255 -3.359449,9.630419 -3.359449,14.594937l0,1.642397l3.93802,-0.055991c4.273965,-0.093318 6.644243,0.093318 10.806226,0.821199c6.102998,1.063825 10.526272,2.370278 25.84909,7.689404c7.502768,2.594241 11.627425,3.751384 16.125353,4.479265c3.060831,0.485254 9.201156,0.429263 11.683415,-0.111982c3.00484,-0.653226 5.897699,-1.829033 8.417285,-3.415439c0.634562,-0.410599 1.194471,-0.727881 1.269125,-0.727881c0.055991,0 0.111982,0.578572 0.111982,1.306452c0,0.709217 0.055991,1.306452 0.149309,1.306452c0.223963,-0.018664 3.564748,-2.53825 5.319127,-4.050002c2.911522,-2.482259 6.028344,-6.308298 7.857377,-9.611755c1.194471,-2.146314 2.146314,-4.60991 2.836868,-7.316132c0.597235,-2.370278 0.690553,-2.948849 0.765208,-5.841708c0.130645,-3.714057 -0.093318,-5.80438 -0.895853,-8.865211c-2.444932,-9.331801 -8.659912,-17.226505 -17.226505,-21.873743c-1.941015,-1.045162 -4.740555,-2.108987 -7.278805,-2.762213c-2.090324,-0.522581 -2.53825,-0.578572 -5.991017,-0.634562c-2.052996,-0.018664 -4.199311,0.018664 -4.777882,0.111982zm9.070511,2.53825c5.057836,0.858526 10.563599,3.770048 14.800237,7.82005c5.039173,4.796546 8.305303,10.656917 9.593092,17.170515c0.522581,2.706222 0.578572,7.372123 0.093318,9.985028c-1.175807,6.326961 -5.001846,12.784568 -10.3583,17.469132c-1.642397,1.437097 -3.67673,3.060831 -3.826039,3.060831c-0.055991,0 -0.130645,-3.21014 -0.186636,-7.14816c-0.111982,-7.278805 -0.149309,-7.894704 -0.989171,-11.29148c-2.015669,-8.211985 -7.484105,-15.714754 -15.117518,-20.753926c-5.636408,-3.714057 -12.094015,-5.953689 -19.148857,-6.625579c-0.709217,-0.074654 -1.269125,-0.186636 -1.269125,-0.279954c0,-0.279954 3.042167,-2.967513 4.740555,-4.180647c3.247467,-2.314287 7.801386,-4.367283 11.272816,-5.057836c3.415439,-0.690553 7.017515,-0.746544 10.395627,-0.167972z"/>
  <path stroke="null" fill="#3e4095" id="svg_4" d="m78.202123,94.116778c-13.904384,2.426268 -23.98273,11.123507 -27.416833,23.684112c-0.877189,3.172812 -1.13848,5.300463 -1.119816,9.089175c0.018664,3.714057 0.335945,6.140325 1.213134,9.238483c2.108987,7.465441 6.438943,13.699084 12.635259,18.141022c2.892858,2.07166 8.08134,4.385947 11.814061,5.263136c1.082489,0.242627 4.292629,0.727881 5.393781,0.802535l0.839862,0.055991l0,-1.119816l0,-1.101153l-1.959678,-0.242627c-5.319127,-0.67189 -10.022355,-2.407605 -14.370974,-5.300463c-2.407605,-1.586406 -6.196316,-5.412445 -7.87604,-7.913368c-4.796546,-7.185487 -6.550925,-16.106689 -4.796546,-24.44932c2.687559,-12.877886 12.653923,-21.724434 27.043561,-24.076048c0.970507,-0.149309 1.829033,-0.279954 1.922351,-0.279954c0.074654,0 0.130645,-0.503917 0.130645,-1.119816c0,-1.101153 0,-1.119816 -0.503917,-1.101153c-0.298618,0 -1.60507,0.2053 -2.948849,0.429263z"/>
  <path stroke="null" fill="#3e4095" id="svg_5" d="m380.272535,115.131995c-2.818204,0.074654 -5.393781,0.223963 -5.692399,0.317281c-1.922351,0.653226 -3.658066,1.978342 -4.348619,3.359449c-0.765208,1.493088 -0.783871,2.052996 -0.783871,20.324664l0,17.637105l-0.46659,0.447926c-0.410599,0.429263 -0.578572,0.46659 -2.314287,0.46659c-1.717051,0 -1.903687,-0.037327 -2.426268,-0.46659c-0.298618,-0.26129 -0.690553,-0.858526 -0.858526,-1.306452c-0.46659,-1.213134 -0.26129,-2.258296 0.746544,-3.620739c1.698388,-2.314287 1.679724,-2.220969 1.679724,-6.737561c0,-3.67673 -0.037327,-4.068665 -0.373272,-4.647237c-0.2053,-0.354608 -0.615899,-0.802535 -0.895853,-1.026498c-0.522581,-0.391936 -0.727881,-0.391936 -9.107838,-0.447926c-8.155994,-0.055991 -8.622585,-0.037327 -9.387792,0.317281c-1.362443,0.597235 -1.493088,0.970507 -1.567743,4.180647c-0.111982,4.236638 0.055991,4.40461 3.919357,4.441937c2.612904,0.037327 3.303458,0.130645 3.564748,0.559908c0.541244,0.839862 -0.783871,2.463596 -2.575577,3.154149c-0.93318,0.373272 -1.474425,0.447926 -3.266131,0.447926c-3.47143,0.018664 -5.244472,-0.802535 -7.14816,-3.284794c-4.14332,-5.468436 -4.012675,-14.053693 0.317281,-18.346322c3.93802,-3.93802 9.294474,-3.042167 12.784568,2.127651c2.07166,3.060831 4.81521,4.516592 7.372123,3.93802c2.314287,-0.541244 4.14332,-2.034333 5.188482,-4.217974c1.063825,-2.27696 1.101153,-4.591246 0.055991,-6.700233c-0.951844,-1.959678 -4.14332,-5.132491 -7.092169,-7.092169c-4.068665,-2.668895 -7.913368,-3.826039 -12.784568,-3.826039c-3.788711,0 -7.14816,0.765208 -10.246318,2.33295c-10.432954,5.244472 -15.49079,16.405307 -12.971204,28.629967c0.895853,4.329956 3.023504,8.454612 5.991017,11.590097c3.378112,3.583412 7.652077,5.599081 13.643094,6.420279c3.023504,0.429263 3.844702,0.373272 7.61475,-0.391936c3.863366,-0.802535 3.994011,-0.765208 3.994011,0.578572c0.018664,1.511752 1.082489,3.00484 2.463596,3.452767c1.474425,0.46659 3.490094,0.541244 14.800237,0.522581l11.944706,-0.037327l0.839862,-0.46659c0.615899,-0.335945 0.970507,-0.709217 1.306452,-1.39977l0.46659,-0.93318l0.093318,-18.066368l0.093318,-18.085031l0.541244,-0.46659c0.541244,-0.46659 0.597235,-0.46659 3.00484,-0.391936c2.351614,0.055991 2.519586,0.093318 3.67673,0.690553c4.647237,2.351614 6.718897,8.510603 5.0765,15.042864c-0.485254,1.903687 -1.791706,4.348619 -3.042167,5.729726c-1.437097,1.549079 -2.556914,2.127651 -4.833873,2.482259c-2.07166,0.298618 -2.388941,0.46659 -2.650232,1.362443c-0.26129,0.951844 -0.242627,10.563599 0.018664,11.814061c0.26129,1.157143 1.213134,2.220969 2.33295,2.556914c0.951844,0.279954 57.24127,0.335945 57.987814,0.055991c0.802535,-0.317281 1.213134,-0.93318 1.530415,-2.351614c0.429263,-1.922351 1.269125,-3.098158 4.329956,-6.065671c2.780877,-2.687559 4.161983,-4.385947 5.524426,-6.830879c1.213134,-2.146314 1.623733,-3.490094 1.623733,-5.244472c0,-2.519586 -1.231798,-4.516592 -3.434103,-5.655072c-1.082489,-0.541244 -1.39977,-0.615899 -2.706222,-0.615899c-1.325116,0 -1.642397,0.074654 -2.855531,0.653226c-1.847697,0.895853 -2.668895,1.661061 -4.255301,3.994011c-2.33295,3.434103 -4.348619,5.263136 -6.606915,6.047007c-1.325116,0.447926 -1.885024,0.46659 -3.21014,0.074654c-1.941015,-0.559908 -3.975347,-2.53825 -5.188482,-5.020509c-3.882029,-7.988022 -0.802535,-17.394478 6.065671,-18.607612c2.911522,-0.503917 6.028344,1.119816 8.193322,4.255301c1.773042,2.575577 3.284794,3.751384 5.449772,4.199311c1.157143,0.26129 2.53825,0 3.956684,-0.709217c2.74355,-1.381107 4.591246,-5.0765 4.050002,-8.100004c-0.279954,-1.661061 -0.93318,-2.874195 -2.370278,-4.516592c-3.919357,-4.40461 -8.734566,-7.222814 -14.072357,-8.230649c-2.015669,-0.391936 -6.196316,-0.391936 -8.211985,0c-9.854382,1.86636 -17.581114,9.705073 -19.316829,19.578119c-0.447926,2.482259 -0.447926,6.457607 -0.018664,9.145165c0.541244,3.396776 2.108987,7.82005 3.807375,10.787562c0.541244,0.93318 0.839862,1.679724 0.858526,2.146314l0.018664,0.690553l-6.028344,0c-5.729726,0 -6.047007,-0.018664 -6.308298,-0.354608c-0.335945,-0.485254 -0.186636,-1.063825 0.67189,-2.53825c4.068665,-6.905533 5.300463,-16.218671 3.042167,-23.124204c-1.959678,-6.047007 -6.21498,-11.104844 -11.814061,-14.09102c-1.717051,-0.914517 -4.367283,-1.847697 -6.438943,-2.27696c-1.661061,-0.354608 -6.345625,-0.447926 -12.971204,-0.26129zm12.803232,2.612904c5.375118,1.101153 10.395627,4.479265 13.456458,9.051847c1.735715,2.575577 3.191476,6.289634 3.602075,9.145165c0.223963,1.679724 0.223963,5.412445 0,7.092169c-0.485254,3.322121 -1.885024,7.502768 -3.527421,10.395627c-1.119816,2.015669 -1.325116,2.575577 -1.325116,3.732721c0,1.007835 0.186636,1.493088 0.895853,2.239632c0.765208,0.821199 1.791706,0.93318 8.379958,0.858526c5.561754,-0.055991 5.972353,-0.074654 6.588252,-0.429263c0.821199,-0.485254 1.306452,-1.418434 1.306452,-2.519586c0,-1.175807 -0.242627,-1.903687 -1.13848,-3.378112c-1.119816,-1.86636 -2.351614,-4.945855 -3.098158,-7.82005c-0.597235,-2.27696 -0.67189,-2.836868 -0.746544,-5.692399c-0.074654,-2.500923 -0.037327,-3.527421 0.2053,-4.833873c0.895853,-4.721892 2.706222,-8.267976 5.916362,-11.590097c5.524426,-5.711062 13.288485,-7.894704 20.884572,-5.860371c1.959678,0.522581 5.207145,2.164978 7.110833,3.602075c2.127651,1.60507 4.591246,4.217974 5.169818,5.487099c0.391936,0.877189 0.447926,1.213134 0.373272,2.444932c-0.093318,1.661061 -0.615899,2.724886 -1.86636,3.844702c-0.951844,0.858526 -1.773042,1.213134 -2.855531,1.213134c-1.661061,0 -2.818204,-0.821199 -4.441937,-3.135485c-3.098158,-4.423274 -7.316132,-6.252307 -11.683415,-5.0765c-3.863366,1.045162 -6.812215,4.385947 -8.08134,9.145165c-0.354608,1.306452 -0.429263,2.052996 -0.429263,4.292629c0.018664,2.351614 0.074654,2.948849 0.522581,4.572583c1.437097,5.207145 4.479265,8.958529 8.08134,9.89171c4.311292,1.119816 8.54793,-1.362443 12.299314,-7.185487c0.839862,-1.306452 2.108987,-2.575577 3.079494,-3.079494c0.821199,-0.429263 2.407605,-0.559908 3.266131,-0.279954c1.773042,0.597235 2.892858,2.519586 2.612904,4.553919c-0.354608,2.74355 -2.295623,5.711062 -6.345625,9.723737c-3.322121,3.284794 -3.956684,4.087329 -4.665901,5.991017c-0.26129,0.690553 -0.615899,1.418434 -0.783871,1.60507c-0.279954,0.317281 -1.623733,0.335945 -28.18204,0.335945l-27.902086,0l-0.541244,-0.541244l-0.541244,-0.541244l0,-4.759219c0,-5.580417 -0.055991,-5.431108 1.810369,-5.711062c1.474425,-0.223963 2.482259,-0.67189 3.900693,-1.754379c3.079494,-2.33295 5.356454,-7.185487 5.617744,-11.982033c0.354608,-6.886869 -3.023504,-12.653923 -8.379958,-14.29632c-1.082489,-0.335945 -1.642397,-0.373272 -4.105993,-0.317281c-3.079494,0.055991 -3.639403,0.2053 -4.292629,1.101153c-0.2053,0.26129 -0.447926,0.802535 -0.559908,1.213134c-0.149309,0.503917 -0.242627,6.364289 -0.279954,18.588948l-0.074654,17.861068l-0.541244,0.578572l-0.522581,0.559908l-11.664752,0c-7.073505,0 -12.038024,-0.074654 -12.653923,-0.186636c-1.381107,-0.26129 -1.773042,-0.690553 -1.941015,-2.127651c-0.298618,-2.930186 -1.754379,-3.452767 -6.345625,-2.258296c-3.508757,0.914517 -7.297469,0.765208 -11.328807,-0.447926c-6.47627,-1.959678 -11.011526,-6.737561 -13.027195,-13.736412c-0.989171,-3.434103 -1.250461,-6.233643 -0.93318,-9.537101c0.541244,-5.487099 2.444932,-9.854382 5.897699,-13.493785c3.490094,-3.67673 7.540096,-5.879035 12.22466,-6.644243c3.00484,-0.485254 6.420279,-0.279954 9.313138,0.559908c1.698388,0.503917 5.039173,2.239632 6.718897,3.508757c2.034333,1.549079 4.497928,4.124656 5.132491,5.375118c1.045162,2.052996 0.503917,4.647237 -1.343779,6.345625c-0.970507,0.895853 -1.829033,1.287789 -2.780877,1.287789c-1.773042,0 -2.986176,-0.821199 -4.60991,-3.135485c-2.351614,-3.359449 -5.151154,-5.132491 -8.529267,-5.375118c-2.407605,-0.186636 -4.591246,0.485254 -6.662906,2.052996c-2.090324,1.586406 -3.620739,4.012675 -4.497928,7.166823c-0.447926,1.60507 -0.503917,2.127651 -0.485254,4.516592c0,2.33295 0.074654,2.967513 0.503917,4.572583c1.231798,4.497928 3.247467,7.297469 6.494934,8.958529c2.33295,1.194471 5.057836,1.530415 7.596086,0.93318c2.314287,-0.541244 4.460601,-2.07166 5.244472,-3.732721c0.727881,-1.549079 0.391936,-3.620739 -0.653226,-4.012675c-0.26129,-0.111982 -1.567743,-0.186636 -2.892858,-0.186636c-2.33295,0 -3.042167,-0.130645 -3.378112,-0.634562c-0.074654,-0.111982 -0.149309,-1.063825 -0.149309,-2.127651c0,-2.892858 -0.727881,-2.650232 7.988022,-2.631568c7.894704,0.018664 8.603921,0.093318 9.257147,0.970507c0.354608,0.503917 0.391936,0.765208 0.354608,3.415439c-0.018664,1.586406 -0.130645,3.21014 -0.242627,3.583412c-0.130645,0.373272 -0.821199,1.60507 -1.567743,2.724886l-1.325116,2.034333l0,1.325116c0.018664,1.549079 0.578572,2.855531 1.661061,3.807375c0.895853,0.783871 1.698388,0.970507 4.180647,0.970507c2.762213,0 3.732721,-0.391936 4.497928,-1.773042c0.26129,-0.503917 0.298618,-2.33295 0.391936,-18.943557l0.093318,-18.383649l0.410599,-0.783871c0.559908,-1.026498 1.623733,-1.86636 2.762213,-2.202305c0.653226,-0.186636 2.706222,-0.317281 6.998851,-0.447926c6.94286,-0.186636 8.734566,-0.130645 11.123507,0.354608z"/>
  <path stroke="null" fill="#3e4095" id="svg_6" d="m166.854236,115.374622c-1.773042,0.597235 -2.855531,1.362443 -3.751384,2.668895c-1.213134,1.754379 -1.194471,1.287789 -1.194471,20.809917c0,17.450469 0,17.674432 -0.373272,18.141022c-0.242627,0.298618 -0.615899,0.503917 -0.989171,0.541244l-0.597235,0.055991l0,1.119816l0,1.119816l0.559908,-0.037327c1.661061,-0.111982 2.575577,-0.634562 3.228803,-1.810369c0.298618,-0.522581 0.317281,-2.052996 0.410599,-18.962221l0.093318,-18.383649l0.522581,-0.877189c0.279954,-0.485254 0.783871,-1.082489 1.119816,-1.325116c2.314287,-1.735715 6.102998,-1.194471 7.502768,1.063825l0.559908,0.914517l0.093318,18.402312c0.074654,13.587103 0.149309,18.532958 0.317281,18.887566c0.391936,0.895853 1.362443,1.810369 2.258296,2.164978c0.765208,0.298618 1.474425,0.335945 5.207145,0.335945c4.068665,0 4.348619,-0.018664 4.833873,-0.391936c1.007835,-0.746544 1.287789,-1.306452 1.269125,-2.575577c0,-0.93318 -0.130645,-1.39977 -0.615899,-2.370278c-0.335945,-0.653226 -0.951844,-1.86636 -1.362443,-2.687559c-3.452767,-6.849542 -3.994011,-15.154846 -1.381107,-21.351162c2.724886,-6.457607 8.006686,-11.030189 14.837564,-12.859222c1.567743,-0.410599 2.183642,-0.46659 4.8712,-0.485254c3.527421,0 4.721892,0.2053 7.708068,1.381107c4.535255,1.773042 9.929037,6.438943 10.582263,9.145165c0.597235,2.482259 -0.597235,5.132491 -2.836868,6.233643c-2.27696,1.13848 -4.40461,0.223963 -6.233643,-2.650232c-1.586406,-2.482259 -4.385947,-4.553919 -6.998851,-5.169818c-5.132491,-1.194471 -10.208991,1.941015 -12.243323,7.577423c-0.802535,2.220969 -1.063825,4.031338 -0.93318,6.737561c0.391936,8.865211 6.345625,15.360145 12.560605,13.699084c2.594241,-0.690553 5.673735,-3.266131 7.894704,-6.606915c1.455761,-2.183642 2.388941,-3.116822 3.695393,-3.714057c2.874195,-1.325116 5.80438,0.615899 5.711062,3.770048c-0.018664,1.306452 -0.373272,2.220969 -1.381107,3.620739c-2.034333,2.836868 -1.567743,6.233643 1.063825,7.782722c2.295623,1.343779 4.8712,0.67189 5.972353,-1.567743c0.335945,-0.653226 0.354608,-1.661061 0.447926,-19.447474c0.074654,-15.304154 0.130645,-18.850239 0.354608,-19.242175c0.485254,-0.970507 0.727881,-1.007835 6.905533,-1.007835c7.390787,0 6.998851,-0.186636 8.137331,3.751384c0.354608,1.213134 1.157143,3.975347 1.773042,6.140325c1.194471,4.050002 1.810369,6.177653 3.247467,11.104844c1.026498,3.564748 1.157143,3.919357 1.306452,3.546085c0.055991,-0.149309 0.690553,-2.164978 1.418434,-4.479265c0.727881,-2.314287 1.754379,-5.54309 2.27696,-7.185487c0.503917,-1.642397 1.175807,-3.788711 1.493088,-4.759219c1.959678,-6.21498 2.556914,-7.521432 3.770048,-8.100004c0.895853,-0.429263 9.555765,-0.447926 10.3583,-0.037327c0.895853,0.46659 1.642397,1.493088 1.885024,2.575577c0.149309,0.709217 0.186636,6.233643 0.149309,20.026046c-0.055991,21.295171 0.037327,19.727428 -1.39977,20.697936c-2.108987,1.437097 -5.561754,0.914517 -7.036178,-1.063825c-0.391936,-0.522581 -0.391936,-0.727881 -0.485254,-12.317978l-0.093318,-11.795397l-0.429263,1.39977c-0.223963,0.765208 -0.541244,1.735715 -0.690553,2.146314c-0.130645,0.410599 -0.989171,3.098158 -1.86636,5.972353c-4.423274,14.277656 -4.367283,14.09102 -5.617744,15.192173c-1.306452,1.157143 -2.052996,1.418434 -3.994011,1.418434c-1.978342,0 -2.74355,-0.279954 -4.105993,-1.511752c-1.101153,-0.989171 -1.381107,-1.567743 -2.239632,-4.647237c-0.429263,-1.549079 -1.063825,-3.844702 -1.418434,-5.132491c-0.354608,-1.287789 -0.93318,-3.340785 -1.287789,-4.572583c-0.335945,-1.231798 -0.970507,-3.508757 -1.39977,-5.039173c-1.39977,-5.020509 -1.679724,-5.935026 -1.773042,-6.028344c-0.055991,-0.055991 -0.093318,6.420279 -0.093318,14.408301c0,16.125353 0.037327,15.565445 -1.194471,16.069362c-0.578572,0.242627 -5.767053,0.279954 -39.025594,0.279954l-38.353704,0l0,-3.079494l0,-3.060831l-0.67189,-0.186636c-1.679724,-0.46659 -2.687559,-1.679724 -2.911522,-3.508757c-0.298618,-2.53825 0.055991,-2.482259 -13.904384,-2.482259l-11.254153,0l0.037327,-5.841708l0.055991,-5.823044l11.104844,-0.093318c10.208991,-0.093318 11.160835,-0.111982 11.627425,-0.429263c0.690553,-0.447926 1.082489,-1.306452 1.194471,-2.53825c0.130645,-1.325116 -0.186636,-2.482259 -0.877189,-3.247467l-0.522581,-0.597235l-11.179498,-0.093318l-11.160835,-0.093318l-0.055991,-4.889864l-0.037327,-4.908528l10.992862,-0.037327c10.787562,-0.055991 11.011526,-0.055991 11.534107,-0.447926c0.802535,-0.578572 1.250461,-1.661061 1.325116,-3.21014c0.093318,-1.642397 -0.279954,-2.780877 -1.101153,-3.490094l-0.578572,-0.46659l-14.053693,0c-9.443783,0 -14.389638,0.074654 -15.0242,0.2053c-0.522581,0.111982 -1.213134,0.429263 -1.530415,0.690553c-1.231798,1.045162 -1.157143,-0.093318 -1.269125,20.287336l-0.093318,18.476967l-0.522581,1.082489c-0.410599,0.821199 -0.727881,1.175807 -1.39977,1.586406l-0.877189,0.503917l-18.476967,0.093318l-18.476967,0.093318l0,3.919357l0,3.919357l77.733906,0l77.733906,0l0.839862,-0.391936c1.063825,-0.503917 1.810369,-1.250461 2.314287,-2.314287c0.354608,-0.783871 0.391936,-1.250461 0.485254,-7.092169c0.111982,-7.129496 -0.074654,-6.980187 1.511752,-1.325116c0.690553,2.482259 0.914517,3.042167 1.623733,3.956684c3.527421,4.721892 10.171664,4.591246 13.680421,-0.26129c0.335945,-0.447926 0.858526,-1.735715 1.306452,-3.191476c0.429263,-1.343779 0.914517,-2.911522 1.101153,-3.47143c0.186636,-0.559908 0.429263,-1.381107 0.541244,-1.829033c0.429263,-1.60507 0.578572,-0.802535 0.578572,3.21014c0,4.311292 0.111982,4.964518 1.026498,6.158989c0.653226,0.858526 1.717051,1.567743 3.172812,2.090324c2.295623,0.839862 5.020509,0.522581 7.036178,-0.821199c0.821199,-0.541244 1.754379,-1.86636 2.015669,-2.855531c0.130645,-0.447926 0.167972,-7.708068 0.149309,-20.641945l-0.055991,-19.932728l-0.503917,-0.970507c-0.746544,-1.418434 -1.530415,-2.202305 -2.724886,-2.79954l-1.063825,-0.522581l-5.132491,0l-5.132491,0l-0.951844,0.503917c-1.082489,0.559908 -2.015669,1.567743 -2.724886,2.892858c-0.26129,0.503917 -1.549079,4.273965 -2.874195,8.417285c-1.306452,4.124656 -2.444932,7.446778 -2.53825,7.35346c-0.130645,-0.130645 -1.511752,-4.721892 -3.228803,-10.768899c-0.858526,-2.986176 -1.567743,-5.319127 -1.754379,-5.655072c-0.335945,-0.653226 -1.642397,-1.661061 -2.556914,-2.015669c-0.839862,-0.317281 -1.474425,-0.354608 -7.073505,-0.354608c-5.953689,0 -6.177653,0.018664 -6.905533,0.410599c-0.93318,0.503917 -1.474425,1.063825 -1.903687,2.015669c-0.317281,0.690553 -0.335945,1.959678 -0.429263,19.410147c-0.093318,17.170515 -0.111982,18.719594 -0.410599,19.242175c-0.373272,0.67189 -0.653226,0.821199 -1.586406,0.821199c-0.522581,0 -0.821199,-0.149309 -1.381107,-0.709217c-1.175807,-1.175807 -1.194471,-2.33295 -0.074654,-3.900693c0.989171,-1.39977 1.549079,-2.612904 1.791706,-4.012675c1.007835,-5.599081 -4.665901,-9.630419 -9.48111,-6.737561c-1.530415,0.895853 -2.314287,1.735715 -3.844702,3.975347c-1.455761,2.127651 -3.322121,4.14332 -4.553919,4.908528c-1.287789,0.802535 -3.00484,1.306452 -4.068665,1.175807c-3.116822,-0.354608 -5.879035,-3.415439 -7.297469,-8.044013c-0.447926,-1.493088 -0.522581,-1.997006 -0.522581,-4.385947c-0.018664,-2.351614 0.037327,-2.892858 0.429263,-4.105993c0.653226,-2.108987 1.437097,-3.508757 2.687559,-4.796546c3.975347,-4.14332 9.387792,-3.266131 13.008531,2.108987c1.474425,2.164978 3.060831,3.340785 5.169818,3.807375c2.668895,0.597235 5.953689,-1.325116 7.35346,-4.329956c0.597235,-1.287789 0.634562,-1.474425 0.634562,-3.322121c0,-1.847697 -0.037327,-2.052996 -0.615899,-3.21014c-0.765208,-1.549079 -3.508757,-4.497928 -5.767053,-6.196316c-2.967513,-2.220969 -6.774888,-3.919357 -10.115673,-4.497928c-1.791706,-0.317281 -5.897699,-0.373272 -7.670741,-0.093318c-2.948849,0.46659 -6.662906,1.978342 -9.593092,3.882029c-1.773042,1.157143 -5.225809,4.628574 -6.438943,6.47627c-4.050002,6.196316 -5.132491,13.251158 -3.191476,21.03388c0.802535,3.172812 1.773042,5.580417 3.639403,8.902539c0.279954,0.485254 0.46659,1.119816 0.46659,1.549079l0,0.709217l-4.050002,0c-2.911522,-0.018664 -4.14332,-0.074654 -4.348619,-0.242627c-0.877189,-0.709217 -0.839862,0.26129 -0.93318,-19.335493l-0.093318,-18.402312l-0.447926,-0.970507c-0.541244,-1.213134 -1.922351,-2.53825 -3.340785,-3.191476c-0.877189,-0.410599 -1.381107,-0.503917 -2.930186,-0.541244c-1.175807,-0.037327 -2.146314,0.037327 -2.612904,0.186636z"/>
  <path stroke="null" fill="#3e4095" id="svg_7" d="m285.08816,134.112879c-3.154149,1.101153 -4.964518,4.591246 -4.292629,8.249312c0.429263,2.351614 1.735715,4.180647 3.67673,5.151154l1.082489,0.559908l12.411296,0l12.411296,0l1.250461,-0.615899c2.034333,-0.989171 3.303458,-2.836868 3.695393,-5.319127c0.522581,-3.303458 -1.007835,-6.494934 -3.714057,-7.764059l-1.045162,-0.485254l-12.317978,-0.037327c-10.82489,-0.037327 -12.411296,0 -13.15784,0.26129zm25.083882,2.146314c1.026498,0.317281 2.220969,1.530415 2.594241,2.668895c0.67189,1.922351 0.186636,4.460601 -1.026498,5.636408c-1.418434,1.343779 -0.67189,1.269125 -13.288485,1.325116c-12.672586,0.055991 -12.709914,0.055991 -13.960375,-1.157143c-1.045162,-1.007835 -1.511752,-2.202305 -1.511752,-3.844702c0,-1.13848 0.074654,-1.567743 0.46659,-2.33295c0.597235,-1.157143 1.381107,-1.903687 2.314287,-2.239632c1.007835,-0.354608 23.236186,-0.410599 24.411993,-0.055991z"/>
 </g>
</svg>