<svg width="295" height="300" xmlns="http://www.w3.org/2000/svg" preserveAspectRatio="xMidYMid meet">

 <g>
  <title>background</title>
  <rect fill="none" id="canvas_background" height="302" width="297" y="-1" x="-1"/>
 </g>
 <g>
  <title>Layer 1</title>
  <rect id="svg_9" height="2.808172" width="0" y="930.727918" x="1022.103216" fill-opacity="null" stroke-opacity="null" stroke-width="null" stroke="null" fill="#3e4095"/>
  <g transform="matrix(12.680974780116458,0,0,12.680974780116458,0,0) " id="svg_15"/>
  <g id="svg_23"/>
  <g id="svg_39"/>
  <g id="svg_48"/>
  <g id="svg_61"/>
  <g stroke="null" id="svg_62">
   <path stroke="null" fill="#3e4095" id="svg_2" d="m150.770948,16.92599c-5.728598,2.616767 -14.00324,6.435833 -18.388093,8.416089c-4.384853,2.015618 -12.730218,5.870045 -18.564902,8.522174c-5.834683,2.687491 -15.382347,7.072343 -21.21703,9.724472c-22.45469,10.325621 -50.284362,23.091201 -55.836152,25.601883l-2.793576,1.273022l-12.093707,0c-11.704728,0 -12.129069,0.035362 -13.048474,0.742596c-0.884043,0.707234 -1.166937,1.874171 -0.636511,2.652129c0.707234,1.096213 1.909533,1.202298 14.00324,1.202298l12.199792,0l3.995874,-1.803448c2.192426,-1.02549 8.769706,-4.031236 14.604389,-6.683365c5.834683,-2.687491 14.498304,-6.648003 19.272136,-8.840429c4.773832,-2.192426 13.508176,-6.188301 19.448944,-8.911153c5.940768,-2.722852 11.598643,-5.339619 12.55341,-5.76396c0.990128,-0.459702 5.76396,-2.652129 10.608515,-4.879917c4.879917,-2.227788 12.730218,-5.834683 17.50405,-8.02711c4.773832,-2.157065 9.300132,-4.243406 10.078089,-4.632385c0.777958,-0.353617 5.374981,-2.47532 10.219536,-4.703108l8.840429,-3.995874l4.597023,1.909533c2.546044,1.096213 5.587151,2.333873 6.754088,2.828937c1.166937,0.495064 3.783704,1.591277 5.834683,2.47532c2.05098,0.884043 4.986002,2.121703 6.541918,2.758214c1.555916,0.636511 5.940768,2.439958 9.724472,4.066597c3.783704,1.591277 8.805068,3.677619 11.138941,4.667747c2.333873,0.990128 4.879917,2.05098 5.657875,2.404597c0.777958,0.353617 4.349491,1.838809 7.956386,3.359363c3.606895,1.485192 9.547664,3.995874 13.189921,5.55179c4.667747,1.944894 6.966258,2.758214 7.779578,2.687491c0.990128,-0.106085 1.379107,-0.495064 3.182555,-3.217916c1.343745,-2.05098 2.227788,-3.076469 2.546044,-2.935023c0.601149,0.21217 5.728598,3.995874 5.97613,4.384853c0.070723,0.141447 -0.636511,1.520554 -1.591277,3.076469c-0.919405,1.555916 -1.732724,3.253278 -1.732724,3.783704c0,0.777958 0.919405,1.768086 4.773832,5.374981c3.394725,3.147193 5.056726,4.455576 5.657875,4.455576c0.495064,0 1.944894,-0.884043 3.536172,-2.157065c1.520554,-1.166937 2.864299,-2.015618 3.005746,-1.838809c0.141447,0.141447 1.166937,1.626639 2.298512,3.217916l2.05098,2.970384l-2.722852,2.722852c-1.485192,1.485192 -2.687491,2.899661 -2.687491,3.111831c0,0.990128 5.198172,11.563282 5.940768,12.058346c0.707234,0.459702 1.096213,0.424341 4.208044,-0.459702c1.909533,-0.530426 3.50081,-0.813319 3.536172,-0.671873c1.308384,3.642257 2.121703,6.365109 1.944894,6.541918c-0.141447,0.106085 -1.626639,0.636511 -3.324001,1.166937c-2.05098,0.601149 -3.217916,1.166937 -3.465448,1.626639c-0.565787,1.096213 0.565787,14.109325 1.308384,14.922645c0.459702,0.530426 1.166937,0.636511 4.243406,0.636511l3.677619,0l-0.106085,3.960512l-0.106085,3.995874l-3.783704,0.176809c-2.157065,0.106085 -3.960512,0.353617 -4.208044,0.565787c-0.459702,0.495064 -3.147193,10.785324 -3.217916,12.482686c-0.070723,1.520554 0.671873,2.157065 4.066597,3.430087c1.379107,0.530426 2.722852,1.096213 2.935023,1.273022c0.318255,0.21217 0.035362,1.166937 -0.954766,3.394725c-0.742596,1.697362 -1.485192,3.111831 -1.626639,3.147193c-0.176809,0.070723 -1.485192,-0.282894 -2.935023,-0.777958c-3.182555,-1.096213 -3.925151,-1.096213 -4.844555,-0.106085c-1.874171,2.086341 -7.178429,9.972004 -7.178429,10.679239c0,1.02549 0.424341,1.485192 3.430087,3.925151c1.555916,1.202298 2.47532,2.192426 2.333873,2.439958c-0.495064,0.813319 -4.809194,5.870045 -5.056726,5.870045c-0.106085,0 -1.44983,-0.954766 -2.970384,-2.121703c-1.520554,-1.166937 -3.147193,-2.121703 -3.571533,-2.121703c-0.495064,0 -2.298512,1.23766 -4.667747,3.147193c-4.809194,3.925151 -11.280388,8.168557 -12.482686,8.168557c-0.21217,0 -0.353617,-1.343745 -0.353617,-3.71298l0,-3.71298l-1.343745,0.848681c-8.23928,5.198172 -19.802562,8.02711 -30.658609,7.532046c-12.694856,-0.601149 -21.994988,-2.970384 -49.22351,-12.482686c-25.142181,-8.769706 -36.776186,-11.74009 -50.673341,-12.907027c-4.455576,-0.388979 -15.205538,-0.21217 -15.948134,0.247532c-0.176809,0.106085 -0.318255,25.74333 -0.318255,58.877259l0,58.665089l34.477674,-0.070723l34.442313,-0.106085l0.813319,-0.813319l0.813319,-0.813319l0.176809,-34.725206c0.176809,-30.552524 0.282894,-34.937377 0.777958,-36.564016c1.23766,-3.995874 3.606895,-6.400471 7.532046,-7.638131c2.47532,-0.777958 2.581405,-0.777958 30.234268,-0.777958c26.379841,0 27.829671,0.035362 28.996608,0.671873c4.809194,2.546044 7.036982,8.663621 5.445704,14.81656c-1.02549,3.995874 -2.758214,6.259024 -5.799322,7.638131c-1.520554,0.707234 -2.26315,0.742596 -20.226902,0.742596l-18.670987,0l0,4.597023l0,4.561662l19.024604,0.106085l18.989242,0.106085l1.626639,0.954766c3.571533,2.086341 5.374981,5.587151 5.374981,10.360983c0,5.198172 -2.404597,9.300132 -6.329747,10.785324c-1.874171,0.671873 -2.687491,0.707234 -20.474434,0.707234l-18.564902,0l0,6.188301l0,6.188301l17.433327,0c18.246646,0 22.171797,0.247532 25.071458,1.485192c3.041108,1.308384 4.879917,4.101959 4.879917,7.390599c0,1.131575 1.096213,2.793576 1.874171,2.793576c0.141447,0 0.247532,-19.519668 0.247532,-43.424189l0,-43.424189l3.076469,-1.520554c4.5263,-2.227788 8.946514,-5.233534 13.932517,-9.47694c0.495064,-0.424341 0.954766,-0.176809 3.571533,1.838809c3.50081,2.687491 4.384853,2.828937 5.905407,1.131575c3.465448,-3.819065 8.168557,-9.936643 8.168557,-10.643877c0,-1.02549 -0.388979,-1.485192 -3.465448,-3.925151c-1.414469,-1.131575 -2.510682,-2.192426 -2.47532,-2.369235c0.318255,-0.954766 4.066597,-5.905407 4.490938,-5.940768c0.247532,0 1.591277,0.388979 2.935023,0.884043c2.510682,0.919405 3.995874,1.096213 4.809194,0.601149c0.636511,-0.424341 5.374981,-11.386473 5.374981,-12.482686c0,-1.273022 -0.777958,-1.838809 -4.243406,-3.147193c-1.662001,-0.636511 -3.111831,-1.273022 -3.28864,-1.379107c-0.282894,-0.282894 1.096213,-6.718726 1.626639,-7.390599c0.21217,-0.282894 1.520554,-0.424341 4.172683,-0.424341c3.606895,0 3.854427,-0.035362 4.349491,-0.813319c0.353617,-0.565787 0.530426,-2.687491 0.707234,-7.567407c0.282894,-8.592897 0.495064,-8.23928 -4.915279,-8.23928c-4.349491,0 -3.995874,0.388979 -4.137321,-5.092087l-0.106085,-3.50081l3.50081,-1.166937c3.465448,-1.131575 4.101959,-1.520554 4.101959,-2.687491c0,-0.990128 -3.783704,-12.022984 -4.384853,-12.694856c-0.742596,-0.884043 -1.273022,-0.848681 -4.809194,0.21217c-1.626639,0.495064 -3.076469,0.884043 -3.253278,0.884043c-0.141447,0 -0.990128,-1.555916 -1.874171,-3.430087l-1.591277,-3.430087l2.616767,-2.47532c1.44983,-1.379107 2.758214,-2.864299 2.864299,-3.28864c0.21217,-0.742596 -2.404597,-4.915279 -6.612641,-10.643877c-1.874171,-2.546044 -2.652129,-2.510682 -6.152939,0.282894c-1.44983,1.166937 -2.828937,2.121703 -3.041108,2.121703c-0.21217,0 -1.555916,-1.166937 -2.970384,-2.581405l-2.616767,-2.546044l1.768086,-2.970384c2.581405,-4.278768 2.546044,-4.455576 -2.298512,-8.062472c-6.754088,-5.056726 -7.496684,-5.516428 -8.486812,-5.268896c-0.636511,0.176809 -1.520554,1.202298 -3.041108,3.50081c-1.166937,1.803448 -2.298512,3.324001 -2.47532,3.394725c-0.21217,0.070723 -2.05098,-0.601149 -4.137321,-1.485192c-2.086341,-0.884043 -6.400471,-2.722852 -9.618387,-4.066597c-5.657875,-2.369235 -8.734344,-3.677619 -20.156179,-8.45145c-3.005746,-1.273022 -6.506556,-2.758214 -7.779578,-3.28864c-1.273022,-0.565787 -4.278768,-1.838809 -6.718726,-2.828937c-5.445704,-2.26315 -8.23928,-3.430087 -20.120817,-8.45145c-5.127449,-2.157065 -9.441579,-3.925151 -9.547664,-3.925151c-0.106085,0 -4.915279,2.157065 -10.643877,4.809194z"/>
   <path stroke="null" fill="#3e4095" id="svg_3" d="m201.302842,44.785244c-12.871665,2.015618 -24.930011,8.486812 -35.962866,19.307498l-3.642257,3.571533l-3.889789,0.247532c-26.627373,1.591277 -50.885511,17.29188 -61.847643,39.994102c-4.137321,8.592897 -6.365109,18.246646 -6.365109,27.652863l0,3.111831l7.461322,-0.106085c8.097833,-0.176809 12.588771,0.176809 20.474434,1.555916c11.563282,2.015618 19.944009,4.490938 48.975978,14.569028c14.21541,4.915279 22.03035,7.107705 30.552524,8.486812c5.799322,0.919405 17.433327,0.813319 22.136435,-0.21217c5.693236,-1.23766 11.174303,-3.465448 15.948134,-6.471194c1.202298,-0.777958 2.26315,-1.379107 2.404597,-1.379107c0.106085,0 0.21217,1.096213 0.21217,2.47532c0,1.343745 0.106085,2.47532 0.282894,2.47532c0.424341,-0.035362 6.754088,-4.809194 10.078089,-7.673493c5.516428,-4.703108 11.421835,-11.95226 14.887283,-18.211284c2.26315,-4.066597 4.066597,-8.734344 5.374981,-13.861793c1.131575,-4.490938 1.308384,-5.587151 1.44983,-11.068217c0.247532,-7.036982 -0.176809,-10.997494 -1.697362,-16.796816c-4.632385,-17.680859 -16.407837,-32.638865 -32.638865,-41.443933c-3.677619,-1.980256 -8.981876,-3.995874 -13.79107,-5.233534c-3.960512,-0.990128 -4.809194,-1.096213 -11.351111,-1.202298c-3.889789,-0.035362 -7.956386,0.035362 -9.0526,0.21217zm17.185795,4.809194c9.583025,1.626639 20.014732,7.143067 28.041842,14.81656c9.547664,9.087961 15.735964,20.191541 18.175923,32.53278c0.990128,5.127449 1.096213,13.967878 0.176809,18.918519c-2.227788,11.987622 -9.47694,24.222776 -19.625753,33.098567c-3.111831,2.722852 -6.966258,5.799322 -7.249152,5.799322c-0.106085,0 -0.247532,-6.082215 -0.353617,-13.543538c-0.21217,-13.79107 -0.282894,-14.958006 -1.874171,-21.393839c-3.819065,-15.559156 -14.180049,-29.774566 -28.642991,-39.32223c-10.679239,-7.036982 -22.914393,-11.280388 -36.281122,-12.55341c-1.343745,-0.141447 -2.404597,-0.353617 -2.404597,-0.530426c0,-0.530426 5.76396,-5.622513 8.981876,-7.921025c6.152939,-4.384853 14.781198,-8.274642 21.358477,-9.583025c6.471194,-1.308384 13.296006,-1.414469 19.696477,-0.318255z"/>
   <path stroke="null" fill="#3e4095" id="svg_4" d="m83.05326,142.035746c-26.344479,4.597023 -45.439807,21.075583 -51.946363,44.874019c-1.662001,6.011492 -2.157065,10.042728 -2.121703,17.221156c0.035362,7.036982 0.636511,11.634005 2.298512,17.50405c3.995874,14.144687 12.199792,25.9555 23.939883,34.371589c5.481066,3.925151 15.311624,8.310004 22.383967,9.972004c2.05098,0.459702 8.133195,1.379107 10.219536,1.520554l1.591277,0.106085l0,-2.121703l0,-2.086341l-3.71298,-0.459702c-10.078089,-1.273022 -18.989242,-4.561662 -27.228522,-10.042728c-4.561662,-3.005746 -11.74009,-10.254898 -14.922645,-14.993368c-9.087961,-13.614261 -12.411963,-30.517162 -9.087961,-46.32385c5.092087,-24.399585 23.975244,-41.161039 51.239128,-45.616615c1.838809,-0.282894 3.465448,-0.530426 3.642257,-0.530426c0.141447,0 0.247532,-0.954766 0.247532,-2.121703c0,-2.086341 0,-2.121703 -0.954766,-2.086341c-0.565787,0 -3.041108,0.388979 -5.587151,0.813319z"/>
   <rect stroke="null" id="svg_8" height="104.266865" width="147.959658" y="177.322396" x="89.542769" stroke-width="NaN" fill="#3e4095"/>
  </g>
 </g>
</svg>